<svg data-v-fde0c5aa="" xmlns="http://www.w3.org/2000/svg" viewBox="0 0 300 300" class="iconLeft"><!----><defs data-v-fde0c5aa=""><!----></defs><rect data-v-fde0c5aa="" fill="transparent" x="0" y="0" width="300px" height="300px" class="logo-background-square"></rect><defs data-v-fde0c5aa=""><!----></defs><g data-v-fde0c5aa="" id="aa3047c2-0f38-4720-9e96-c04b1ba6b88b" fill="#000000" transform="matrix(1.5320849879184724,0,0,1.5320849879184724,88.2532742332619,130.32802925190424)"><path d="M7.57 8.06L7.57 8.61Q6.08 8.81 4.84 9.66Q3.61 10.51 2.91 11.82Q2.21 13.12 2.21 14.59L2.21 14.59Q2.21 15.89 2.63 16.60Q3.05 17.32 3.78 17.32L3.78 17.32Q4.45 17.32 5.08 16.25Q5.70 15.18 6.08 13.43Q6.45 11.68 6.45 9.79L6.45 9.79L8.22 9.21L8.22 16.67Q8.22 16.97 8.36 17.16Q8.50 17.35 8.72 17.35L8.72 17.35Q8.93 17.35 9.15 17.22Q9.37 17.09 9.52 16.87L9.52 16.87L9.81 17.15Q9.18 18.19 8.01 18.19L8.01 18.19Q7.27 18.19 6.86 17.72Q6.45 17.25 6.45 16.32L6.45 16.32L6.45 14.42L6.36 14.42Q5.95 16.32 5.14 17.28Q4.33 18.23 3.15 18.23L3.15 18.23Q1.88 18.23 1.13 17.36Q0.39 16.49 0.39 14.97L0.39 14.97Q0.39 13.17 1.36 11.61Q2.34 10.05 3.98 9.09Q5.63 8.13 7.57 8.06L7.57 8.06ZM13.38 12.98Q12.80 13.64 12.37 14.62Q11.94 15.61 11.94 16.42L11.94 16.42Q11.94 17.21 12.36 17.72Q12.78 18.23 13.55 18.23L13.55 18.23Q14.17 18.23 14.74 17.92Q15.30 17.61 15.71 17.09L15.71 17.09L15.50 16.84Q15.02 17.15 14.60 17.15L14.60 17.15Q13.97 17.15 13.64 16.72Q13.31 16.28 13.31 15.64L13.31 15.64Q13.31 14.59 13.89 13.55Q14.46 12.52 15.27 11.76L15.27 11.76L15.02 11.49Q14.08 12.11 13.23 12.11L13.23 12.11Q12.68 12.11 12.24 11.68Q11.80 11.26 11.65 10.68L11.65 10.68L10.30 12.19Q10.36 12.39 10.58 12.59Q10.81 12.78 10.85 12.82L10.85 12.82L9.91 14.76L10.49 15.01L11.40 13.06Q11.76 13.20 12.19 13.20L12.19 13.20Q12.87 13.20 13.34 12.92L13.34 12.92L13.38 12.98ZM18.70 10.51Q19.66 10.51 19.66 11.27L19.66 11.27Q19.64 11.61 19.52 11.86Q19.39 12.11 19.24 12.31Q19.10 12.50 19.04 12.57L19.04 12.57Q19.22 12.78 19.70 13.17L19.70 13.17Q20.13 13.52 20.40 13.81Q20.66 14.10 20.85 14.54Q21.03 14.98 21.03 15.61L21.03 15.61Q21.03 16.34 20.67 16.95Q20.31 17.56 19.70 17.91Q19.08 18.26 18.34 18.26L18.34 18.26Q17.79 18.26 17.21 18.06Q16.62 17.86 16.32 17.51L16.32 17.51L17.35 16.14Q17.64 16.59 18.05 16.94Q18.45 17.29 18.86 17.29L18.86 17.29Q19.38 17.29 19.75 16.94Q20.13 16.59 20.13 16.06L20.13 16.06Q20.13 15.62 19.77 15.20Q19.40 14.78 18.73 14.18L18.73 14.18Q18.27 13.78 18.14 13.64L18.14 13.64L17.19 15.02L16.69 14.69L17.78 13.17Q17.50 12.67 17.50 12.01L17.50 12.01Q17.50 11.37 17.81 10.94Q18.12 10.51 18.70 10.51L18.70 10.51ZM18.70 11.09Q18.54 11.09 18.48 11.19Q18.42 11.28 18.42 11.47L18.42 11.47Q18.42 11.62 18.48 11.77Q18.54 11.93 18.61 12.08L18.61 12.08Q18.76 11.97 18.87 11.75Q18.98 11.52 18.98 11.35L18.98 11.35Q18.98 11.24 18.91 11.17Q18.83 11.09 18.70 11.09L18.70 11.09ZM24.36 5.15L24.36 14.62L24.42 14.62Q24.72 13.26 25.42 12.11Q26.12 10.96 27.15 10.96L27.15 10.96Q27.62 10.96 27.85 11.26Q28.08 11.55 28.14 11.95Q28.20 12.35 28.20 12.92L28.20 12.92L28.20 16.80Q28.20 16.97 28.30 17.12Q28.41 17.26 28.60 17.26L28.60 17.26Q28.94 17.26 29.30 16.77L29.30 16.77L29.54 17.04Q29.30 17.51 28.85 17.85Q28.41 18.19 27.87 18.19L27.87 18.19Q26.54 18.19 26.54 16.72L26.54 16.72L26.54 13.05Q26.54 12.87 26.48 12.72Q26.42 12.57 26.26 12.57L26.26 12.57Q25.68 12.57 25.25 13.55Q24.82 14.53 24.59 15.82Q24.36 17.11 24.36 17.91L24.36 17.91L22.68 18.27L22.68 5.74L24.36 5.15ZM32.61 6.31L32.12 9.62L31.23 9.90L30.66 6.97L32.61 6.31ZM32.56 11.09L32.56 16.80Q32.56 17.01 32.66 17.14Q32.76 17.26 32.93 17.26L32.93 17.26Q33.28 17.26 33.64 16.77L33.64 16.77L33.89 17.04Q33.59 17.60 33.10 17.89Q32.62 18.19 32.14 18.19L32.14 18.19Q30.87 18.19 30.87 16.72L30.87 16.72L30.87 11.68L32.56 11.09ZM38.54 11.09Q39.28 11.09 39.92 11.38Q40.56 11.68 40.87 12.29L40.87 12.29L39.51 12.85Q39.31 12.49 38.96 12.25Q38.61 12.01 38.22 12.01L38.22 12.01Q37.28 12.01 36.74 12.80Q36.19 13.58 36.19 14.76L36.19 14.76Q36.19 15.83 36.51 16.53Q36.83 17.22 37.53 17.22L37.53 17.22Q38.51 17.22 38.88 16.30Q39.24 15.39 39.24 14.31L39.24 14.31L39.24 13.69L40.88 13.10L40.88 16.74Q40.88 16.94 40.97 17.09Q41.06 17.23 41.24 17.23L41.24 17.23Q41.59 17.23 41.96 16.74L41.96 16.74L42.22 17.01Q42.01 17.50 41.56 17.84Q41.10 18.19 40.59 18.19L40.59 18.19Q39.91 18.19 39.61 17.73Q39.30 17.28 39.30 16.56L39.30 16.56L39.24 16.56Q38.91 17.32 38.35 17.79Q37.79 18.26 37.04 18.26L37.04 18.26Q35.92 18.26 35.32 17.44Q34.71 16.62 34.71 15.30L34.71 15.30Q34.71 14.18 35.19 13.22Q35.67 12.25 36.55 11.67Q37.42 11.09 38.54 11.09L38.54 11.09ZM49.70 7.90Q50.75 7.90 51.62 8.32Q52.49 8.75 53.09 9.55L53.09 9.55L51.84 11.05Q51.48 10.01 50.81 9.34Q50.13 8.67 49.21 8.67L49.21 8.67Q48.41 8.67 47.94 9.17Q47.46 9.67 47.46 10.44L47.46 10.44Q47.46 11.12 47.79 11.57Q48.12 12.03 48.60 12.31Q49.08 12.60 49.91 12.98L49.91 12.98Q50.75 13.37 51.25 13.66Q51.76 13.96 52.10 14.45Q52.44 14.94 52.44 15.64L52.44 15.64Q52.44 16.87 51.57 17.56Q50.69 18.24 49.29 18.24L49.29 18.24Q48.33 18.24 47.45 17.84Q46.56 17.44 46.07 16.74L46.07 16.74L47.28 15.36Q47.67 16.37 48.32 16.97Q48.97 17.57 49.73 17.57L49.73 17.57Q50.30 17.57 50.66 17.22Q51.02 16.87 51.02 16.39L51.02 16.39Q51.02 15.93 50.74 15.58Q50.46 15.22 50.02 14.96Q49.59 14.70 48.86 14.35L48.86 14.35Q47.92 13.89 47.33 13.52Q46.75 13.15 46.33 12.54Q45.92 11.94 45.92 11.09L45.92 11.09Q45.92 10.18 46.42 9.45Q46.91 8.72 47.78 8.31Q48.65 7.90 49.70 7.90L49.70 7.90ZM57.46 11.09Q58.20 11.09 58.84 11.38Q59.47 11.68 59.78 12.29L59.78 12.29L58.42 12.85Q58.23 12.49 57.88 12.25Q57.53 12.01 57.13 12.01L57.13 12.01Q56.20 12.01 55.65 12.80Q55.10 13.58 55.10 14.76L55.10 14.76Q55.10 15.83 55.43 16.53Q55.75 17.22 56.45 17.22L56.45 17.22Q57.43 17.22 57.79 16.30Q58.16 15.39 58.16 14.31L58.16 14.31L58.16 13.69L59.79 13.10L59.79 16.74Q59.79 16.94 59.89 17.09Q59.98 17.23 60.16 17.23L60.16 17.23Q60.51 17.23 60.87 16.74L60.87 16.74L61.14 17.01Q60.93 17.50 60.47 17.84Q60.02 18.19 59.50 18.19L59.50 18.19Q58.83 18.19 58.52 17.73Q58.21 17.28 58.21 16.56L58.21 16.56L58.16 16.56Q57.82 17.32 57.26 17.79Q56.70 18.26 55.96 18.26L55.96 18.26Q54.84 18.26 54.23 17.44Q53.62 16.62 53.62 15.30L53.62 15.30Q53.62 14.18 54.10 13.22Q54.59 12.25 55.46 11.67Q56.34 11.09 57.46 11.09L57.46 11.09ZM70.04 10.96Q70.57 10.96 70.82 11.30Q71.06 11.65 71.06 12.32L71.06 12.32L71.06 16.80Q71.06 17.00 71.16 17.13Q71.26 17.26 71.43 17.26L71.43 17.26Q71.58 17.26 71.77 17.14Q71.96 17.01 72.13 16.77L72.13 16.77L72.38 17.04Q72.03 17.75 71.53 17.97Q71.02 18.19 70.74 18.19L70.74 18.19Q69.38 18.19 69.38 16.72L69.38 16.72L69.38 12.94Q69.38 12.80 69.32 12.68Q69.26 12.57 69.16 12.57L69.16 12.57Q68.87 12.57 68.55 13.24Q68.24 13.90 68.02 15.12Q67.80 16.34 67.80 17.91L67.80 17.91L66.11 18.27L66.11 12.94Q66.11 12.80 66.05 12.68Q66.00 12.57 65.90 12.57L65.90 12.57Q65.63 12.57 65.30 13.24Q64.97 13.92 64.74 15.13Q64.51 16.35 64.51 17.91L64.51 17.91L62.89 18.27L62.89 12.39Q62.89 12.17 62.78 12.03Q62.68 11.90 62.51 11.90L62.51 11.90Q62.34 11.90 62.16 12.04Q61.98 12.18 61.82 12.43L61.82 12.43L61.56 12.15Q61.91 11.42 62.43 11.19Q62.94 10.96 63.21 10.96L63.21 10.96Q64.53 10.96 64.53 12.43L64.53 12.43L64.53 14.10L64.58 14.10Q64.93 12.63 65.53 11.80Q66.12 10.96 66.77 10.96L66.77 10.96Q67.33 10.96 67.55 11.30Q67.77 11.63 67.77 12.32L67.77 12.32L67.77 14.10L67.86 14.10Q68.19 12.63 68.79 11.80Q69.38 10.96 70.04 10.96L70.04 10.96ZM75.57 6.31L75.08 9.62L74.20 9.90L73.63 6.97L75.57 6.31ZM75.53 11.09L75.53 16.80Q75.53 17.01 75.63 17.14Q75.73 17.26 75.89 17.26L75.89 17.26Q76.24 17.26 76.61 16.77L76.61 16.77L76.86 17.04Q76.55 17.60 76.07 17.89Q75.59 18.19 75.11 18.19L75.11 18.19Q73.84 18.19 73.84 16.72L73.84 16.72L73.84 11.68L75.53 11.09ZM85.88 10.96Q86.41 10.96 86.65 11.30Q86.90 11.65 86.90 12.32L86.90 12.32L86.90 16.80Q86.90 17.00 87.00 17.13Q87.09 17.26 87.26 17.26L87.26 17.26Q87.42 17.26 87.61 17.14Q87.79 17.01 87.96 16.77L87.96 16.77L88.21 17.04Q87.86 17.75 87.36 17.97Q86.86 18.19 86.58 18.19L86.58 18.19Q85.22 18.19 85.22 16.72L85.22 16.72L85.22 12.94Q85.22 12.80 85.16 12.68Q85.09 12.57 84.99 12.57L84.99 12.57Q84.70 12.57 84.39 13.24Q84.07 13.90 83.85 15.12Q83.64 16.34 83.64 17.91L83.64 17.91L81.94 18.27L81.94 12.94Q81.94 12.80 81.89 12.68Q81.83 12.57 81.73 12.57L81.73 12.57Q81.47 12.57 81.14 13.24Q80.81 13.92 80.58 15.13Q80.35 16.35 80.35 17.91L80.35 17.91L78.72 18.27L78.72 12.39Q78.72 12.17 78.62 12.03Q78.51 11.90 78.34 11.90L78.34 11.90Q78.18 11.90 77.99 12.04Q77.81 12.18 77.66 12.43L77.66 12.43L77.39 12.15Q77.74 11.42 78.26 11.19Q78.78 10.96 79.04 10.96L79.04 10.96Q80.36 10.96 80.36 12.43L80.36 12.43L80.36 14.10L80.42 14.10Q80.77 12.63 81.36 11.80Q81.96 10.96 82.60 10.96L82.60 10.96Q83.16 10.96 83.38 11.30Q83.61 11.63 83.61 12.32L83.61 12.32L83.61 14.10L83.69 14.10Q84.03 12.63 84.62 11.80Q85.22 10.96 85.88 10.96L85.88 10.96ZM91.41 6.31L90.92 9.62L90.03 9.90L89.46 6.97L91.41 6.31ZM91.36 11.09L91.36 16.80Q91.36 17.01 91.46 17.14Q91.56 17.26 91.73 17.26L91.73 17.26Q92.08 17.26 92.44 16.77L92.44 16.77L92.69 17.04Q92.39 17.60 91.90 17.89Q91.42 18.19 90.94 18.19L90.94 18.19Q89.67 18.19 89.67 16.72L89.67 16.72L89.67 11.68L91.36 11.09ZM97.54 5.04Q98.08 5.04 98.69 5.37Q99.29 5.70 99.64 6.24L99.64 6.24L98.34 6.96Q98.15 6.40 97.81 6.04Q97.47 5.68 96.99 5.68L96.99 5.68Q96.36 5.68 96.10 6.16Q95.84 6.64 95.84 7.27L95.84 7.27L95.84 11.09L98.41 11.09L97.97 12.01L95.84 12.01L95.84 19.94L94.16 20.64L94.16 12.01L93.21 12.01L93.60 11.09L94.16 11.09L94.16 9.20Q94.16 8.12 94.49 7.18Q94.82 6.23 95.58 5.64Q96.33 5.04 97.54 5.04L97.54 5.04ZM102.24 11.09Q102.98 11.09 103.62 11.38Q104.26 11.68 104.57 12.29L104.57 12.29L103.21 12.85Q103.01 12.49 102.66 12.25Q102.31 12.01 101.92 12.01L101.92 12.01Q100.98 12.01 100.44 12.80Q99.89 13.58 99.89 14.76L99.89 14.76Q99.89 15.83 100.21 16.53Q100.53 17.22 101.23 17.22L101.23 17.22Q102.21 17.22 102.58 16.30Q102.94 15.39 102.94 14.31L102.94 14.31L102.94 13.69L104.58 13.10L104.58 16.74Q104.58 16.94 104.67 17.09Q104.76 17.23 104.94 17.23L104.94 17.23Q105.29 17.23 105.66 16.74L105.66 16.74L105.92 17.01Q105.71 17.50 105.26 17.84Q104.80 18.19 104.29 18.19L104.29 18.19Q103.61 18.19 103.31 17.73Q103.00 17.28 103.00 16.56L103.00 16.56L102.94 16.56Q102.61 17.32 102.05 17.79Q101.49 18.26 100.74 18.26L100.74 18.26Q99.62 18.26 99.02 17.44Q98.41 16.62 98.41 15.30L98.41 15.30Q98.41 14.18 98.89 13.22Q99.37 12.25 100.25 11.67Q101.12 11.09 102.24 11.09L102.24 11.09ZM109.77 12.98Q109.19 13.64 108.76 14.62Q108.33 15.61 108.33 16.42L108.33 16.42Q108.33 17.21 108.75 17.72Q109.17 18.23 109.94 18.23L109.94 18.23Q110.56 18.23 111.13 17.92Q111.69 17.61 112.10 17.09L112.10 17.09L111.89 16.84Q111.41 17.15 110.99 17.15L110.99 17.15Q110.36 17.15 110.03 16.72Q109.70 16.28 109.70 15.64L109.70 15.64Q109.70 14.59 110.28 13.55Q110.85 12.52 111.66 11.76L111.66 11.76L111.41 11.49Q110.47 12.11 109.62 12.11L109.62 12.11Q109.07 12.11 108.63 11.68Q108.19 11.26 108.04 10.68L108.04 10.68L106.69 12.19Q106.75 12.39 106.97 12.59Q107.20 12.78 107.24 12.82L107.24 12.82L106.30 14.76L106.88 15.01L107.79 13.06Q108.15 13.20 108.58 13.20L108.58 13.20Q109.26 13.20 109.73 12.92L109.73 12.92L109.77 12.98Z"></path></g><defs data-v-fde0c5aa=""><linearGradient data-v-fde0c5aa="" gradientTransform="rotate(25)" id="724b2ff6-5879-4893-aa2b-dc0d1971f719" x1="0%" y1="0%" x2="100%" y2="0%"><stop data-v-fde0c5aa="" offset="0%" stop-color="#288B58" stop-opacity="1"></stop><stop data-v-fde0c5aa="" offset="100%" stop-color="#1522F1" stop-opacity="1"></stop></linearGradient></defs><g data-v-fde0c5aa="" id="eb3c95f4-62a6-49f2-aa5c-62a2277b1f95" stroke="none" fill="url(#724b2ff6-5879-4893-aa2b-dc0d1971f719)" transform="matrix(1.1203371063216612,0,0,1.1203371063216612,40,132.0746062988534)"><path d="M15.965 16.258l.707-.707 10.39 10.39-.707.707z"></path><path d="M4.935 26.357L26.018 5.274l.707.707L5.642 27.065z"></path><path d="M31 1v4.194h-4.194V1H31m1-1h-6.194v6.194H32V0zM31 26.806V31h-4.194v-4.194H31m1-1h-6.194V32H32v-6.194zM5.194 26.806V31H1v-4.194h4.194m1-1H0V32h6.194v-6.194z"></path></g><!----></svg>